<svg xmlns="http://www.w3.org/2000/svg" viewBox="0 0 64 64" width="64" height="64">
<title>Equipment: Binoculars</title>
<defs><linearGradient id="g1" gradientUnits="userSpaceOnUse" x1="0.00" y1="25.00" x2="0.00" y2="31.82"><stop offset="0.000" stop-color="#BAC5CE"/><stop offset="1.000" stop-color="#9AA7B3"/></linearGradient><linearGradient id="g2" gradientUnits="userSpaceOnUse" x1="0.00" y1="22.19" x2="0.00" y2="26.11"><stop offset="0.000" stop-color="#BAC5CE"/><stop offset="1.000" stop-color="#9AA7B3"/></linearGradient><linearGradient id="g3" gradientUnits="userSpaceOnUse" x1="0.00" y1="31.80" x2="0.00" y2="46.56"><stop offset="0.000" stop-color="#7BC3DF"/><stop offset="1.000" stop-color="#51A1C1"/></linearGradient><linearGradient id="g4" gradientUnits="userSpaceOnUse" x1="0.00" y1="26.09" x2="0.00" y2="40.85"><stop offset="0.000" stop-color="#7BC3DF"/><stop offset="1.000" stop-color="#51A1C1"/></linearGradient></defs>
<path fill="#0A0D10" fill-rule="evenodd" d="M9.2 39.79L9.24 40.7L9.29 41.03L9.6 42.47L9.7 42.79L10.24 44.15L10.39 44.45L11.16 45.71L11.35 45.98L12.32 47.1L12.55 47.33L13.7 48.29L13.96 48.48L15.26 49.25L15.54 49.39L17.26 50.05L19.06 50.45L20.61 50.57L20.91 50.57L22.76 50.42L24.29 50.08L26.03 49.44L27.66 48.55L29.13 47.43L30.41 46.11L31.47 44.61L31.62 44.34L32.27 42.98L32.39 42.68L32.81 41.25L32.87 40.93L33.05 39.46L33.06 39.13L33.01 38.04L33.32 38.75L34.09 40.01L34.29 40.27L35.26 41.4L35.49 41.63L36.64 42.59L36.9 42.77L38.2 43.55L38.48 43.69L40.19 44.35L41.99 44.74L43.84 44.87L45.4 44.76L45.69 44.72L47.5 44.29L48.97 43.73L50.59 42.84L52.07 41.72L53.35 40.4L54.4 38.91L54.56 38.63L55.21 37.27L55.32 36.97L55.74 35.54L55.81 35.22L55.99 33.75L56 33.42L55.93 31.95L55.89 31.62L55.64 30.47L55.66 30.47L55.2 28.69L54.74 27.31L54.62 27.03L53.86 25.61L53.08 24.54L52.48 23.89L51.69 20.83L51.28 19.62L50.65 18.35L50.49 18.09L49.64 16.95L48.63 15.94L47.48 15.09L46.21 14.39L45.11 13.96L43.69 13.6L42.35 13.44L41.01 13.45L39.68 13.62L38.38 13.95L36.96 14.51L35.62 15.27L34.4 16.2L33.33 17.3L32.44 18.53L31.81 19.71L31.58 20.29L30.88 20.26L29.69 20.4L29.18 20.53L28.17 20.94L27.57 21.31L26.9 21.92L26.53 22.48L25.69 21.65L24.78 20.95L24.54 20.79L23.27 20.1L21.91 19.59L20.76 19.31L19.17 19.14L17.83 19.17L16.74 19.32L15.2 19.73L14.02 20.21L12.68 20.97L11.47 21.91L10.4 23L10.21 23.23L9.36 24.47L8.87 25.41L8.42 26.65L8.08 28.19L8.01 29.23L8.06 29.88L9.23 34.39L9.1 34.81L8.85 36L8.72 37.48L8.77 38.13Z"/>
<path fill="#9AA7B3" fill-rule="evenodd" d="M19.81 29.82L18.26 30.16L16.79 30.74L15.58 31.42L14.2 32.5L13.14 33.64L12.28 34.92L11.64 36.3L11.27 37.56L11.07 39.24L11.15 40.72L11.43 41.99L11.96 43.37L12.72 44.65L13.69 45.8L14.84 46.79L16.15 47.58L17.76 48.23L19.1 48.54L20.67 48.68L22.24 48.58L23.98 48.2L25.45 47.62L26.82 46.83L27.9 45.99L29.1 44.72L29.96 43.44L30.6 42.06L30.97 40.79L31.17 39.12L31.09 37.64L30.81 36.37L30.28 34.99L29.52 33.7L28.55 32.56L27.24 31.46L26.09 30.77L24.66 30.18L23.14 29.82L21.38 29.68Z"/>
<path fill="#9AA7B3" fill-rule="evenodd" d="M19.85 29.84L18.31 30.18L16.84 30.76L15.57 31.47L14.25 32.5L13.19 33.63L12.33 34.9L11.69 36.28L11.3 37.6L11.11 39.2L11.19 40.68L11.47 42.01L12.01 43.39L12.78 44.66L13.75 45.8L14.9 46.78L16.2 47.57L17.74 48.18L19.14 48.51L20.7 48.64L22.27 48.54L23.93 48.17L25.4 47.6L26.77 46.82L27.9 45.94L29.05 44.72L29.91 43.46L30.55 42.08L30.94 40.75L31.13 39.16L31.05 37.68L30.77 36.35L30.23 34.97L29.46 33.7L28.49 32.56L27.24 31.51L26.04 30.79L24.61 30.21L23.1 29.85L21.42 29.72Z"/>
<path fill="#38434E" fill-rule="evenodd" d="M20.37 21.16L19.21 21.04L18.1 21.06L17 21.21L16.02 21.46L14.74 21.98L13.64 22.62L12.64 23.41L11.77 24.32L11.13 25.19L10.57 26.29L10.21 27.29L9.98 28.33L9.9 29.39L11.22 34.48L10.97 35.21L10.71 36.41L10.61 37.64L11.12 39.6L11.25 39.59L11.36 38.21L11.77 36.58L12.08 37.79L12.21 37.78L12.3 36.58L12.52 35.57L12.87 34.59L13.4 33.63L14.39 32.59L15.53 31.69L16.79 30.96L18.14 30.4L19.37 30.08L20.64 29.91L21.9 29.89L23.16 30.02L24.5 30.34L25.64 30.83L26.54 31.53L27.33 32.33L27.99 33.24L28.5 34.23L28.92 35.46L29.09 35.41L28.39 32.71L28.91 33.25L29.68 34.31L30.28 35.47L30.76 36.88L30.93 36.83L30.42 34.87L30 33.62L29.38 32.44L28.6 31.36L27.83 30.57L26.91 27.01L26.54 25.93L26.02 24.92L25.35 23.99L24.54 23.16L23.49 22.35L22.59 21.87L21.48 21.44Z"/>
<path fill="#1C242B" fill-rule="evenodd" d="M22.51 25.52L21.84 24.44L21.39 23.98L20.76 23.55L21.27 25.52L21.79 25.92L22.59 26.87L22.88 27.42L23.12 28.12L23.22 28.09ZM26.51 25.95L25.99 24.94L25.32 24.01L24.52 23.19L23.48 22.45L25.64 30.79L26.57 31.5L27.36 32.31L28.02 33.22L28.53 34.22L28.93 35.39L29.04 35.36L26.88 27.02Z"/>
<path fill="#2A343C" fill-rule="evenodd" d="M20.31 23.26L18.94 22.84L19.46 24.83L20.73 25.22L21.35 25.57L22.37 29.52L23.56 29.81L24.65 30.24L25.76 30.86L23.62 22.49L22.57 21.91L21.46 21.47L20.21 21.17L20.82 23.55Z"/>
<path fill="#38434E" fill-rule="evenodd" d="M18.1 21.09L17.01 21.25L15.88 21.54L18.04 29.88L19.16 29.59L20.24 29.44L21.33 29.42L22.5 29.54L20.34 21.2L19.21 21.08ZM13.62 25.72L13.29 26.85L13.25 27.44L13.76 29.41L13.84 29.41L14.01 28.17L14.49 27.08L13.97 25.1ZM10.6 26.31L10.24 27.3L10.02 28.33L9.94 29.38L12.1 37.72L12.18 37.71L12.27 36.57L12.49 35.56L12.84 34.58L13.33 33.62L11.17 25.27Z"/>
<path fill="#7E8C99" fill-rule="evenodd" d="M16.41 23.13L15.99 21.5L14.75 22.01L13.66 22.65L12.66 23.43L11.8 24.34L11.07 25.37L13.24 33.72L14.03 32.64L14.88 31.74L15.85 30.97L16.94 30.34L18.15 29.84L16.92 25.1L17.17 25L16.66 23.03Z"/>
<path fill="#596673" fill-rule="evenodd" d="M30.39 34.88L29.96 33.63L29.35 32.46L28.57 31.38L27.64 30.42L26.45 29.56L26.94 31.45L28.02 32.28L28.94 33.23L29.71 34.29L30.31 35.45L30.77 36.8L30.88 36.77Z"/>
<path fill="#7A8693" fill-rule="evenodd" d="M26.59 29.61L25.37 28.92L24.08 28.42L22.63 28.07L23.13 29.98L24.51 30.31L25.78 30.8L27.06 31.52Z"/>
<path fill="#9AA7B3" fill-rule="evenodd" d="M21.45 27.96L20.16 27.98L18.88 28.15L17.58 28.5L18.07 30.39L19.37 30.05L20.63 29.87L21.9 29.85L23.25 29.99L22.76 28.1ZM12.03 32.85L11.42 34.05L11 35.22L10.74 36.41L10.65 37.64L11.14 39.53L11.22 39.52L11.32 38.21L11.57 37.02L11.99 35.87L12.56 34.76Z"/>
<path fill="#E2E9EF" fill-rule="evenodd" d="M17.69 28.46L16.26 29.05L14.98 29.79L13.82 30.7L12.82 31.76L11.97 32.96L12.47 34.86L13.37 33.61L14.37 32.56L15.51 31.66L16.77 30.93L18.18 30.35Z"/>
<path fill="#0A0D10" fill-opacity="0.900" fill-rule="evenodd" d="M23.36 27.66L23.17 27.71L23.36 28.48L23.36 34.48L24.24 37.86L24.24 38.89L24.51 38.82L26.03 38.63L26.03 38.45L39.26 35.15L39.26 29.16L39.46 29.11L39.26 28.34L39.26 27.31L39.01 27.37L38.13 23.99L24.88 27.29L23.36 27.48Z"/>
<path fill="#9AA7B3" fill-rule="evenodd" d="M24.33 28.25L24.31 28.17L24.16 28.18L24.14 28.29L24.16 34.37L25.09 37.94L25.23 37.93L25.23 37.82L38.46 34.53L38.48 28.53L37.56 24.96Z"/>
<path fill="#7A8693" fill-rule="evenodd" d="M24.29 28.24L24.2 28.25L24.2 34.37L25.11 37.87L25.2 37.86L25.2 31.74Z"/>
<path fill="#9AA7B3" fill-rule="evenodd" d="M25.08 37.82L38.43 34.5L38.43 28.38L25.08 31.7Z"/>
<path fill="url(#g1)" fill-rule="evenodd" d="M37.53 25L24.19 28.32L25.09 31.82L38.44 28.5Z"/>
<path fill="#E2E9EF" fill-rule="evenodd" d="M24.19 28.32L25.09 31.82L38.44 28.5L38.15 27.37L25.09 30.62L24.48 28.25Z"/>
<path fill="#9AA7B3" fill-rule="evenodd" d="M34.03 23.38L33.34 22.73L32.32 22.31L31.11 22.15L29.9 22.29L28.86 22.71L28.15 23.35L27.89 24.13L28.13 24.92L28.83 25.57L29.85 26L31.06 26.15L32.27 26.01L33.3 25.59L34.01 24.95L34.28 24.17Z"/>
<path fill="url(#g2)" fill-rule="evenodd" d="M34 23.4L33.32 22.76L32.31 22.34L31.11 22.19L29.91 22.33L28.88 22.74L28.19 23.37L27.93 24.13L28.16 24.9L28.84 25.54L29.86 25.96L31.06 26.11L32.26 25.97L33.28 25.56L33.98 24.93L34.24 24.17Z"/>
<path fill="#E2E9EF" fill-rule="evenodd" d="M27.93 24.13L28.16 24.9L28.84 25.54L29.86 25.96L31.06 26.11L32.26 25.97L33.28 25.56L33.98 24.93L34.24 24.17L34.04 23.54L33.98 23.73L33.28 24.36L32.26 24.77L31.06 24.91L29.86 24.76L28.84 24.34L28.16 23.7L28.12 23.56Z"/>
<path fill="#9AA7B3" fill-rule="evenodd" d="M27.9 23.96L27.95 27.97L28.22 28.41L28.76 28.9L29.82 29.37L30.87 29.52L31.75 29.49L33 29.15L33.74 28.64L34.13 28.11L34.27 27.53L34.27 23.97L34.12 23.95L33.96 24.65L33.6 25.12L33.03 25.52L32.47 25.75L31.83 25.9L30.88 25.95L29.94 25.82L28.91 25.39L28.38 24.92L28.11 24.37L28.08 23.96Z"/>
<path fill="#7A8693" fill-rule="evenodd" d="M27.93 24.03L27.98 27.9L28.08 27.89L28.04 24.03ZM32.52 29.27L33.14 29.02L33.14 25.52L32.48 25.79L31.79 25.95L31.79 29.44Z"/>
<path fill="#9AA7B3" fill-rule="evenodd" d="M28.25 28.39L28.92 28.95L28.92 25.45L28.35 24.94L28.02 24.28L27.96 24.29L27.96 27.79ZM30.87 29.48L31.91 29.43L31.91 25.93L30.87 25.99L29.86 25.84L29.86 29.34Z"/>
<path fill="#E2E9EF" fill-rule="evenodd" d="M28.8 28.88L29.33 29.16L29.98 29.37L29.98 25.87L29.37 25.67L28.8 25.37Z"/>
<path fill="#596673" fill-rule="evenodd" d="M33.02 29.08L33.71 28.61L34.1 28.09L34.24 27.53L34.24 24.04L34.14 24.03L33.99 24.67L33.63 25.15L33.02 25.57Z"/>
<path fill="#9AA7B3" fill-rule="evenodd" d="M42.75 24.11L41.2 24.45L39.73 25.03L38.52 25.71L37.13 26.79L36.07 27.93L35.22 29.21L34.57 30.59L34.21 31.86L34 33.53L34.09 35.02L34.36 36.28L34.9 37.67L35.66 38.95L36.63 40.1L37.78 41.08L39.09 41.88L40.7 42.52L42.03 42.84L43.6 42.97L45.18 42.88L46.91 42.49L48.39 41.92L49.75 41.13L50.84 40.28L52.04 39.01L52.9 37.74L53.54 36.36L53.9 35.09L54.11 33.42L54.02 31.93L53.75 30.67L53.21 29.28L52.45 28L51.48 26.85L50.18 25.76L49.02 25.07L47.59 24.48L46.08 24.11L44.32 23.97Z"/>
<path fill="#9AA7B3" fill-rule="evenodd" d="M42.78 24.14L41.24 24.48L39.77 25.05L38.51 25.76L37.18 26.8L36.13 27.93L35.27 29.2L34.62 30.57L34.24 31.9L34.04 33.5L34.12 34.98L34.41 36.3L34.95 37.68L35.71 38.96L36.68 40.09L37.83 41.07L39.14 41.86L40.68 42.48L42.08 42.81L43.64 42.94L45.21 42.84L46.87 42.47L48.34 41.9L49.7 41.12L50.84 40.23L51.98 39.02L52.84 37.75L53.49 36.38L53.87 35.05L54.07 33.45L53.99 31.97L53.7 30.64L53.16 29.27L52.4 27.99L51.43 26.85L50.18 25.81L48.97 25.09L47.55 24.5L46.03 24.14L44.35 24.01Z"/>
<path fill="#38434E" fill-rule="evenodd" d="M43.3 15.46L42.14 15.34L41.04 15.35L39.93 15.51L38.95 15.75L37.67 16.27L36.57 16.92L35.58 17.7L34.71 18.61L34.07 19.49L33.5 20.59L33.14 21.59L32.92 22.62L32.84 23.68L34.16 28.78L33.9 29.5L33.64 30.7L33.55 31.93L34.06 33.89L34.19 33.88L34.29 32.51L34.7 30.88L35.02 32.09L35.15 32.08L35.24 30.87L35.46 29.86L35.81 28.88L36.33 27.93L37.32 26.89L38.46 25.99L39.72 25.25L41.08 24.7L42.31 24.37L43.57 24.2L44.84 24.18L46.09 24.31L47.43 24.64L48.58 25.13L49.48 25.82L50.27 26.63L50.92 27.54L51.43 28.52L51.85 29.76L52.02 29.71L51.32 27.01L51.85 27.55L52.62 28.61L53.21 29.76L53.7 31.17L53.86 31.12L53.36 29.17L52.93 27.91L52.32 26.73L51.54 25.65L50.77 24.86L49.84 21.3L49.48 20.23L48.95 19.21L48.28 18.28L47.48 17.46L46.42 16.65L45.52 16.17L44.41 15.73Z"/>
<path fill="#1C242B" fill-rule="evenodd" d="M45.44 19.82L44.78 18.73L44.33 18.27L43.7 17.84L44.21 19.82L44.73 20.22L45.53 21.17L45.81 21.72L46.05 22.42L46.16 22.38ZM49.45 20.24L48.92 19.23L48.25 18.31L47.45 17.48L46.41 16.74L48.58 25.08L49.5 25.8L50.29 26.61L50.95 27.52L51.47 28.51L51.87 29.68L51.97 29.65L49.81 21.31Z"/>
<path fill="#2A343C" fill-rule="evenodd" d="M43.24 17.56L41.88 17.14L42.39 19.12L43.67 19.52L44.28 19.86L45.31 23.82L46.49 24.1L47.59 24.53L48.69 25.15L46.55 16.79L45.51 16.2L44.4 15.77L43.14 15.47L43.76 17.85Z"/>
<path fill="#38434E" fill-rule="evenodd" d="M41.04 15.39L39.94 15.54L38.81 15.84L40.98 24.18L42.1 23.88L43.18 23.73L44.27 23.71L45.44 23.84L43.27 15.49L42.14 15.37ZM36.55 20.02L36.23 21.15L36.18 21.74L36.7 23.71L36.78 23.7L36.95 22.46L37.42 21.38L36.91 19.4ZM33.53 20.6L33.18 21.6L32.95 22.63L32.87 23.68L35.04 32.02L35.12 32.01L35.2 30.87L35.42 29.85L35.77 28.87L36.27 27.91L34.11 19.56Z"/>
<path fill="#7E8C99" fill-rule="evenodd" d="M39.35 17.42L38.93 15.8L37.69 16.31L36.59 16.94L35.6 17.73L34.74 18.64L34.01 19.67L36.17 28.02L36.96 26.93L37.81 26.04L38.79 25.27L39.87 24.63L41.09 24.14L39.86 19.39L40.1 19.29L39.59 17.32Z"/>
<path fill="#596673" fill-rule="evenodd" d="M53.32 29.18L52.9 27.93L52.29 26.75L51.51 25.67L50.57 24.71L49.38 23.85L49.88 25.75L50.95 26.58L51.88 27.52L52.65 28.59L53.25 29.75L53.71 31.1L53.81 31.07Z"/>
<path fill="#7A8693" fill-rule="evenodd" d="M49.52 23.9L48.31 23.22L47.02 22.71L45.57 22.37L46.06 24.27L47.44 24.6L48.71 25.1L49.99 25.82Z"/>
<path fill="#9AA7B3" fill-rule="evenodd" d="M44.39 22.25L43.1 22.27L41.82 22.45L40.52 22.79L41.01 24.68L42.3 24.34L43.57 24.17L44.84 24.15L46.19 24.29L45.7 22.39ZM34.97 27.15L34.35 28.35L33.93 29.51L33.68 30.71L33.58 31.93L34.07 33.82L34.16 33.82L34.26 32.5L34.51 31.32L34.92 30.17L35.5 29.05Z"/>
<path fill="#E2E9EF" fill-rule="evenodd" d="M40.63 22.75L39.19 23.34L37.91 24.09L36.76 25L35.75 26.06L34.91 27.26L35.4 29.16L36.31 27.91L37.3 26.86L38.44 25.96L39.71 25.22L41.12 24.64Z"/>
<path fill="#0A0D10" fill-rule="evenodd" d="M29.84 38.7L29.77 37.89L29.62 37.09L29.38 36.31L29.07 35.55L28.67 34.84L28.21 34.16L27.67 33.54L27.08 32.97L26.42 32.46L25.72 32.02L24.97 31.64L24.19 31.34L23.37 31.12L22.54 30.97L21.69 30.9L20.84 30.91L20 31L19.16 31.16L18.34 31.4L17.55 31.72L16.79 32.11L16.07 32.56L15.4 33.08L14.79 33.65L14.23 34.28L13.74 34.96L13.32 35.68L12.98 36.44L12.71 37.22L12.52 38.02L12.42 38.83L12.4 39.65L12.47 40.47L12.62 41.27L12.86 42.05L13.17 42.8L13.57 43.52L14.03 44.19L14.57 44.82L15.16 45.39L15.82 45.9L16.52 46.34L17.27 46.71L18.05 47.02L18.87 47.24L19.7 47.39L20.55 47.46L21.4 47.45L22.24 47.36L23.08 47.2L23.9 46.95L24.69 46.64L25.45 46.25L26.17 45.8L26.84 45.28L27.45 44.7L28.01 44.07L28.5 43.39L28.92 42.67L29.26 41.92L29.53 41.14L29.72 40.34L29.82 39.52Z"/>
<path fill="#E4FAFF" fill-rule="evenodd" d="M14.12 36.1L13.81 36.77L13.58 37.47L13.41 38.18L13.32 38.9L13.3 39.63L13.36 40.35L13.5 41.05L13.71 41.75L13.99 42.41L14.89 41.98L14.65 41.41L14.47 40.82L14.36 40.21L14.31 39.59L14.32 38.97L14.4 38.35L14.54 37.74L14.74 37.14L15.01 36.56L15.34 36L15.72 35.47L16.15 34.98L16.64 34.53L17.17 34.12L17.73 33.76L18.33 33.45L18.96 33.2L19.61 33.01L20.28 32.88L20.95 32.81L21.63 32.8L22.3 32.85L22.95 32.97L23.59 33.15L24.2 33.38L24.78 33.67L25.28 32.8L24.61 32.47L23.9 32.2L23.17 32L22.42 31.86L21.66 31.8L20.9 31.81L20.13 31.89L19.38 32.04L18.64 32.25L17.92 32.54L17.24 32.89L16.59 33.3L15.99 33.76L15.43 34.28L14.94 34.85L14.5 35.45Z"/>
<path fill="#5DB4D6" fill-rule="evenodd" d="M15.22 44.2L15.75 44.71L16.34 45.16L16.96 45.56L17.46 44.68L16.91 44.34L16.41 43.95L15.95 43.51L15.54 43.03L15.19 42.52L14.89 41.98L13.99 42.41L14.33 43.05L14.75 43.64ZM26.29 34.85L26.7 35.32L27.05 35.84L27.35 36.38L28.25 35.95L27.91 35.31L27.49 34.71L27.02 34.16L26.49 33.65L25.9 33.2L25.28 32.8L24.78 33.67L25.33 34.02L25.83 34.41Z"/>
<path fill="#1D4D63" fill-rule="evenodd" d="M23.28 45.16L22.63 45.35L21.96 45.48L21.29 45.55L20.61 45.56L19.94 45.5L19.29 45.39L18.65 45.21L18.04 44.97L17.46 44.68L16.96 45.56L17.63 45.89L18.34 46.16L19.07 46.36L19.82 46.5L20.58 46.56L21.34 46.55L22.11 46.47L22.86 46.32L23.6 46.1L24.32 45.82L25 45.47L25.65 45.06L26.25 44.59L26.81 44.08L27.3 43.51L27.74 42.9L28.12 42.26L28.43 41.59L28.66 40.89L28.83 40.18L28.92 39.46L28.94 38.73L28.88 38.01L28.74 37.3L28.53 36.61L28.25 35.95L27.35 36.38L27.59 36.95L27.77 37.54L27.88 38.15L27.93 38.76L27.92 39.38L27.84 40L27.7 40.62L27.5 41.22L27.23 41.8L26.9 42.36L26.52 42.88L26.09 43.38L25.6 43.83L25.07 44.24L24.51 44.6L23.91 44.91Z"/>
<path fill="url(#g3)" fill-rule="evenodd" d="M27.93 38.76L27.88 38.15L27.77 37.54L27.59 36.95L27.35 36.38L27.05 35.84L26.7 35.32L26.29 34.85L25.83 34.41L25.33 34.02L24.78 33.67L24.2 33.38L23.59 33.15L22.95 32.97L22.3 32.85L21.63 32.8L20.95 32.81L20.28 32.88L19.61 33.01L18.96 33.2L18.33 33.45L17.73 33.76L17.17 34.12L16.64 34.53L16.15 34.98L15.72 35.47L15.34 36L15.01 36.56L14.74 37.14L14.54 37.74L14.4 38.35L14.32 38.97L14.31 39.59L14.36 40.21L14.47 40.82L14.65 41.41L14.89 41.98L15.19 42.52L15.54 43.03L15.95 43.51L16.41 43.95L16.91 44.34L17.46 44.68L18.04 44.97L18.65 45.21L19.29 45.39L19.94 45.5L20.61 45.56L21.29 45.55L21.96 45.48L22.63 45.35L23.28 45.16L23.91 44.91L24.51 44.6L25.07 44.24L25.6 43.83L26.09 43.38L26.52 42.88L26.9 42.36L27.23 41.8L27.5 41.22L27.7 40.62L27.84 40L27.92 39.38Z"/>
<path fill="#FFFFFF" fill-opacity="0.850" fill-rule="evenodd" d="M17.33 36.42L17.34 36.94L19.05 38.41L19.6 38.38L20.14 37.83L20.12 37.3L18.42 35.83L17.86 35.87Z"/>
<path fill="#0A0D10" fill-rule="evenodd" d="M52.77 33L52.7 32.19L52.55 31.38L52.32 30.6L52 29.85L51.61 29.13L51.14 28.46L50.61 27.83L50.01 27.26L49.36 26.75L48.65 26.31L47.9 25.94L47.12 25.64L46.31 25.41L45.48 25.26L44.63 25.19L43.78 25.2L42.93 25.29L42.09 25.46L41.28 25.7L40.49 26.01L39.73 26.4L39.01 26.86L38.34 27.37L37.72 27.95L37.17 28.58L36.68 29.26L36.26 29.98L35.91 30.73L35.64 31.51L35.46 32.32L35.36 33.13L35.34 33.95L35.41 34.76L35.56 35.56L35.79 36.34L36.11 37.1L36.5 37.82L36.97 38.49L37.5 39.11L38.1 39.68L38.75 40.19L39.46 40.64L40.21 41.01L40.99 41.31L41.8 41.54L42.63 41.68L43.48 41.75L44.33 41.74L45.18 41.66L46.02 41.49L46.83 41.25L47.63 40.93L48.38 40.55L49.1 40.09L49.77 39.57L50.39 39L50.94 38.37L51.43 37.69L51.85 36.97L52.2 36.22L52.47 35.43L52.65 34.63L52.75 33.82Z"/>
<path fill="#E4FAFF" fill-rule="evenodd" d="M37.06 30.39L36.75 31.07L36.51 31.76L36.35 32.47L36.26 33.2L36.24 33.92L36.3 34.64L36.43 35.35L36.64 36.04L36.92 36.71L37.82 36.27L37.58 35.7L37.41 35.11L37.29 34.51L37.24 33.89L37.25 33.27L37.33 32.65L37.47 32.04L37.68 31.44L37.95 30.85L38.27 30.3L38.65 29.77L39.09 29.27L39.57 28.82L40.1 28.41L40.67 28.05L41.27 27.75L41.9 27.5L42.55 27.3L43.21 27.17L43.89 27.1L44.56 27.09L45.23 27.15L45.89 27.27L46.53 27.44L47.14 27.68L47.72 27.97L48.21 27.1L47.54 26.76L46.84 26.49L46.11 26.29L45.36 26.16L44.6 26.09L43.83 26.1L43.07 26.18L42.31 26.33L41.57 26.55L40.86 26.83L40.17 27.18L39.53 27.59L38.92 28.06L38.37 28.58L37.87 29.14L37.43 29.75Z"/>
<path fill="#5DB4D6" fill-rule="evenodd" d="M38.16 38.49L38.69 39L39.27 39.45L39.9 39.85L40.39 38.98L39.85 38.63L39.34 38.24L38.88 37.81L38.48 37.33L38.12 36.82L37.82 36.27L36.92 36.71L37.27 37.34L37.68 37.94ZM49.23 29.14L49.64 29.62L49.99 30.13L50.29 30.67L51.19 30.24L50.84 29.61L50.43 29.01L49.95 28.45L49.42 27.95L48.84 27.49L48.21 27.1L47.72 27.97L48.27 28.31L48.77 28.7Z"/>
<path fill="#1D4D63" fill-rule="evenodd" d="M46.21 39.45L45.56 39.64L44.9 39.78L44.22 39.85L43.55 39.85L42.88 39.8L42.22 39.68L41.59 39.5L40.97 39.27L40.39 38.98L39.9 39.85L40.57 40.18L41.27 40.45L42 40.66L42.75 40.79L43.51 40.85L44.28 40.84L45.04 40.77L45.8 40.62L46.54 40.4L47.25 40.11L47.94 39.76L48.58 39.35L49.19 38.89L49.74 38.37L50.24 37.8L50.68 37.2L51.05 36.55L51.36 35.88L51.6 35.19L51.76 34.47L51.86 33.75L51.87 33.03L51.81 32.31L51.68 31.6L51.47 30.91L51.19 30.24L50.29 30.67L50.53 31.24L50.7 31.84L50.82 32.44L50.87 33.06L50.86 33.68L50.78 34.3L50.64 34.91L50.43 35.51L50.17 36.09L49.84 36.65L49.46 37.18L49.02 37.67L48.54 38.13L48.01 38.53L47.44 38.89L46.84 39.2Z"/>
<path fill="url(#g4)" fill-rule="evenodd" d="M50.87 33.06L50.82 32.44L50.7 31.84L50.53 31.24L50.29 30.67L49.99 30.13L49.64 29.62L49.23 29.14L48.77 28.7L48.27 28.31L47.72 27.97L47.14 27.68L46.53 27.44L45.89 27.27L45.23 27.15L44.56 27.09L43.89 27.1L43.21 27.17L42.55 27.3L41.9 27.5L41.27 27.75L40.67 28.05L40.1 28.41L39.57 28.82L39.09 29.27L38.65 29.77L38.27 30.3L37.95 30.85L37.68 31.44L37.47 32.04L37.33 32.65L37.25 33.27L37.24 33.89L37.29 34.51L37.41 35.11L37.58 35.7L37.82 36.27L38.12 36.82L38.48 37.33L38.88 37.81L39.34 38.24L39.85 38.63L40.39 38.98L40.97 39.27L41.59 39.5L42.22 39.68L42.88 39.8L43.55 39.85L44.22 39.85L44.9 39.78L45.56 39.64L46.21 39.45L46.84 39.2L47.44 38.89L48.01 38.53L48.54 38.13L49.02 37.67L49.46 37.18L49.84 36.65L50.17 36.09L50.43 35.51L50.64 34.91L50.78 34.3L50.86 33.68Z"/>
<path fill="#FFFFFF" fill-opacity="0.850" fill-rule="evenodd" d="M40.26 30.71L40.28 31.24L41.98 32.7L42.54 32.67L43.07 32.12L43.06 31.6L41.35 30.13L40.8 30.16Z"/>
</svg>
