<svg xmlns="http://www.w3.org/2000/svg" viewBox="0 0 64 64" width="64" height="64">
<title>Equipment: Radio upgrade</title>
<defs><linearGradient id="g1" gradientUnits="userSpaceOnUse" x1="0.00" y1="26.11" x2="0.00" y2="41.84"><stop offset="0.000" stop-color="#727B4B"/><stop offset="1.000" stop-color="#5B6339"/></linearGradient><linearGradient id="g2" gradientUnits="userSpaceOnUse" x1="0.00" y1="23.86" x2="0.00" y2="35.51"><stop offset="0.000" stop-color="#586470"/><stop offset="1.000" stop-color="#38434E"/></linearGradient><linearGradient id="g3" gradientUnits="userSpaceOnUse" x1="0.00" y1="27.33" x2="0.00" y2="29.79"><stop offset="0.000" stop-color="#F0E8D3"/><stop offset="1.000" stop-color="#E3D8BC"/></linearGradient><linearGradient id="g4" gradientUnits="userSpaceOnUse" x1="0.00" y1="15.21" x2="0.00" y2="16.12"><stop offset="0.000" stop-color="#BAC5CE"/><stop offset="1.000" stop-color="#9AA7B3"/></linearGradient><linearGradient id="g5" gradientUnits="userSpaceOnUse" x1="0.00" y1="13.78" x2="0.00" y2="15.37"><stop offset="0.000" stop-color="#BAC5CE"/><stop offset="1.000" stop-color="#9AA7B3"/></linearGradient><linearGradient id="g6" gradientUnits="userSpaceOnUse" x1="0.00" y1="44.89" x2="0.00" y2="47.72"><stop offset="0.000" stop-color="#E9E0C7"/><stop offset="1.000" stop-color="#D7CCAE"/></linearGradient></defs>
<path fill="#0A0D10" fill-rule="evenodd" d="M38.94 14.57L38.83 14.58L38.83 15.66L38.86 16.03L39.04 16.64L39.15 16.86L39.35 17.12L39.35 24.74L39.11 24.79L37.97 23.06L36.8 22.22L35.9 21.99L34.91 21.98L17.02 26.43L15.86 27.24L15.48 27.79L15.13 28.92L15.13 30.76L14.21 30.99L13.04 31.79L12.57 32.48L12.21 33.62L12.21 45.84L12.54 46.94L17.7 54.8L18.87 55.64L19.99 55.94L20.98 55.94L48.14 49.19L49.3 48.38L49.78 47.69L50.13 46.55L50.13 34.34L49.8 33.24L44.72 25.5L44.72 17.05L45.01 16.65L45.12 16.34L45.24 15.66L45.24 14.58L44.32 14.42L45.18 14.24L45.11 13.91L44.42 12.75L44.04 12.44L43.28 12.06L42.71 11.91L42.05 11.85L41.43 11.89L40.74 12.07L40.24 12.3L39.44 12.98L39.19 13.34ZM41.43 14.51L41.79 14.39L41.82 14.5Z"/>
<path fill="#0A0D10" fill-opacity="0.900" fill-rule="evenodd" d="M13.34 33.35L13.17 33.61L13.34 33.88L13.34 46.1L18.51 53.97L18.51 54.38L18.83 54.46L19.04 54.78L19.52 54.64L19.63 54.67L19.63 55.11L20.49 54.9L21.37 55.13L21.37 54.68L47.5 48.18L47.97 48.32L48.18 48.01L48.52 47.92L48.52 47.52L49 46.83L49 34.61L49.18 34.35L49 34.08L49 33.62L48.63 33.51L43.51 25.71L41.85 25.28L14.16 32.17L13.73 32.78L13.34 32.9Z"/>
<path fill="#5B6339" fill-rule="evenodd" d="M14.14 33.5L14.14 45.86L19.39 53.85L19.44 53.8L20.57 54.09L47.59 47.33L47.64 47.39L48.2 46.58L48.2 34.21L48.13 34.21L43.01 26.41L41.85 26.1L14.65 32.87L14.21 33.5Z"/>
<path fill="#363C21" fill-rule="evenodd" d="M48.19 46.57L48.19 34.23L48.14 34.21L47.59 35.01L47.59 47.35Z"/>
<path fill="#48502D" fill-rule="evenodd" d="M19.44 53.81L19.44 41.47L14.2 33.5L14.15 33.51L14.15 45.86L19.38 53.83ZM47.71 34.95L20.44 41.73L20.44 54.08L47.71 47.29Z"/>
<path fill="#5B6339" fill-rule="evenodd" d="M20.56 54.08L20.56 41.73L19.32 41.41L19.32 53.75Z"/>
<path fill="url(#g1)" fill-rule="evenodd" d="M14.65 32.88L14.14 33.62L19.34 41.54L20.5 41.84L47.69 35.08L48.2 34.34L43 26.42L41.85 26.11Z"/>
<path fill="#8E9862" fill-rule="evenodd" d="M14.14 33.62L19.34 41.54L20.5 41.84L47.69 35.08L48.2 34.34L47.8 33.72L47.69 33.88L20.5 40.64L19.34 40.34L14.54 33.03Z"/>
<path fill="#0A0D10" fill-opacity="0.900" fill-rule="evenodd" d="M16.26 28.65L16.08 28.91L16.26 29.18L16.26 34.07L20.39 40.36L20.39 40.78L20.71 40.86L20.92 41.18L21.28 41.08L21.28 41.45L22.15 41.24L23.02 41.46L23.02 41.02L39.89 36.82L40.36 36.97L40.57 36.65L40.91 36.57L40.91 36.16L41.29 35.61L41.29 30.72L41.47 30.46L41.29 30.19L41.29 29.74L40.92 29.62L36.84 23.4L35.4 23.02L16.98 27.61L16.65 28.09L16.26 28.2Z"/>
<path fill="#38434E" fill-rule="evenodd" d="M17.06 28.8L17.06 33.83L21.27 40.25L21.32 40.19L22.22 40.43L39.98 35.98L40.03 36.03L40.49 35.36L40.49 30.33L40.43 30.33L36.34 24.09L35.4 23.85L17.46 28.31L17.13 28.8Z"/>
<path fill="#1C242B" fill-rule="evenodd" d="M40.49 35.36L40.49 30.34L40.44 30.33L39.98 30.98L39.98 36Z"/>
<path fill="#2A343C" fill-rule="evenodd" d="M21.32 40.21L21.32 35.2L17.12 28.8L17.07 28.82L17.07 33.83L21.26 40.23ZM40.1 30.92L22.09 35.4L22.09 40.42L40.1 35.94Z"/>
<path fill="#38434E" fill-rule="evenodd" d="M22.21 40.42L22.21 35.41L21.2 35.14L21.2 40.15Z"/>
<path fill="url(#g2)" fill-rule="evenodd" d="M17.47 28.32L17.05 28.92L21.22 35.27L22.15 35.51L40.08 31.05L40.5 30.45L36.33 24.1L35.4 23.86Z"/>
<path fill="#7E8C99" fill-rule="evenodd" d="M17.05 28.92L21.22 35.27L22.15 35.51L40.08 31.05L40.5 30.45L40.09 29.84L22.15 34.31L21.22 34.07L17.46 28.34Z"/>
<path fill="#E3D8BC" fill-rule="evenodd" d="M43.85 28.09L43.42 27.68L42.79 27.42L42.05 27.32L41.31 27.41L40.67 27.67L40.23 28.07L40.07 28.55L40.22 29.04L40.64 29.44L41.28 29.7L42.02 29.8L42.76 29.71L43.4 29.45L43.84 29.06L44 28.57Z"/>
<path fill="url(#g3)" fill-rule="evenodd" d="M43.84 28.09L43.42 27.69L42.79 27.43L42.05 27.33L41.31 27.42L40.67 27.68L40.24 28.07L40.08 28.55L40.22 29.03L40.65 29.43L41.28 29.69L42.02 29.79L42.76 29.7L43.39 29.44L43.83 29.05L43.99 28.57Z"/>
<path fill="#FFFBF0" fill-rule="evenodd" d="M43.71 27.96L43.39 28.24L42.76 28.5L42.02 28.59L41.28 28.49L40.65 28.23L40.36 27.96L40.24 28.07L40.08 28.55L40.22 29.03L40.65 29.43L41.28 29.69L42.02 29.79L42.76 29.7L43.39 29.44L43.83 29.05L43.99 28.57L43.84 28.09Z"/>
<path fill="#E3D8BC" fill-rule="evenodd" d="M40.09 31.43L40.27 31.83L40.72 32.22L41.39 32.45L42.57 32.47L43.2 32.29L43.67 31.97L43.91 31.64L44 31.28L44 28.43L43.89 28.42L43.79 28.86L43.57 29.15L43.22 29.39L42.49 29.62L41.91 29.66L41.33 29.57L40.71 29.31L40.38 29.03L40.22 28.69L40.2 28.42L40.07 28.42Z"/>
<path fill="#C3B694" fill-rule="evenodd" d="M40.08 28.44L40.11 31.55L40.22 31.54L40.19 28.44ZM42.44 32.48L43.32 32.21L43.32 29.36L42.44 29.64Z"/>
<path fill="#E3D8BC" fill-rule="evenodd" d="M40.28 31.82L40.73 32.19L40.73 29.34L40.38 29.03L40.16 28.59L40.1 28.6L40.1 31.44ZM41.9 32.5L42.56 32.46L42.56 29.63L41.91 29.66L41.26 29.57L41.26 32.41Z"/>
<path fill="#FFFBF0" fill-rule="evenodd" d="M40.61 32.12L41.38 32.44L41.38 29.6L40.61 29.27Z"/>
<path fill="#A3936D" fill-rule="evenodd" d="M43.2 32.27L43.66 31.96L43.91 31.64L43.99 31.28L43.99 28.45L43.9 28.44L43.79 28.87L43.58 29.16L43.2 29.42Z"/>
<path fill="#9AA7B3" fill-rule="evenodd" d="M42.74 15.47L42.32 15.2L41.76 15.2L41.33 15.46L41.33 15.86L41.74 16.12L42.31 16.12L42.74 15.87Z"/>
<path fill="url(#g4)" fill-rule="evenodd" d="M42.73 15.47L42.32 15.21L41.76 15.21L41.34 15.46L41.33 15.85L41.75 16.11L42.31 16.12L42.73 15.86Z"/>
<path fill="#E2E9EF" fill-rule="evenodd" d="M42.32 15.21L41.76 15.21L41.34 15.46L41.33 15.85L41.75 16.11L42.31 16.12L42.73 15.86L42.73 15.47Z"/>
<path fill="#9AA7B3" fill-rule="evenodd" d="M41.28 15.53L41.3 28.76L41.58 28.99L42.14 29.06L42.55 28.93L42.72 28.78L42.79 28.57L42.79 15.53L42.7 15.52L42.6 15.8L42.44 15.93L41.99 16.02L41.58 15.9L41.42 15.7L41.41 15.52Z"/>
<path fill="#7A8693" fill-rule="evenodd" d="M41.29 15.54L41.31 28.74L41.41 28.73L41.4 15.54ZM42.14 29.05L42.54 28.92L42.54 15.9L42.14 16.03Z"/>
<path fill="#9AA7B3" fill-rule="evenodd" d="M41.29 28.63L41.6 28.96L41.6 15.93L41.36 15.59L41.29 15.61ZM41.71 29.01L42.26 29.03L42.26 16.01L41.71 15.99Z"/>
<path fill="#E2E9EF" fill-rule="evenodd" d="M41.48 28.89L41.83 29.04L41.83 16.01L41.48 15.86Z"/>
<path fill="#596673" fill-rule="evenodd" d="M42.42 28.99L42.71 28.78L42.78 28.57L42.78 15.55L42.7 15.54L42.61 15.81L42.42 15.96Z"/>
<path fill="#9AA7B3" fill-rule="evenodd" d="M43.22 14.26L42.81 13.93L42.21 13.77L41.56 13.82L41.04 14.06L40.77 14.46L40.85 14.89L41.26 15.22L41.86 15.38L42.5 15.33L43.03 15.09L43.3 14.69Z"/>
<path fill="url(#g5)" fill-rule="evenodd" d="M43.21 14.27L42.8 13.94L42.21 13.78L41.57 13.83L41.04 14.07L40.78 14.46L40.86 14.89L41.26 15.22L41.86 15.37L42.5 15.32L43.02 15.08L43.29 14.69Z"/>
<path fill="#E2E9EF" fill-rule="evenodd" d="M42.84 13.97L42.5 14.12L41.86 14.17L41.23 13.99L41.04 14.07L40.78 14.46L40.86 14.89L41.26 15.22L41.86 15.37L42.5 15.32L43.02 15.08L43.29 14.69L43.21 14.27Z"/>
<path fill="#9AA7B3" fill-rule="evenodd" d="M40.76 14.44L40.79 15.9L41.1 16.22L41.51 16.41L42.26 16.47L42.76 16.36L43.19 16.02L43.31 15.67L43.31 14.45L43.22 14.43L43.07 14.85L42.78 15.08L42.32 15.23L41.95 15.25L41.21 15.04L41 14.86L40.89 14.44Z"/>
<path fill="#7A8693" fill-rule="evenodd" d="M40.77 14.46L40.8 15.88L40.9 15.88L40.88 14.45ZM42.27 16.46L42.87 16.27L42.87 15.05L42.27 15.25Z"/>
<path fill="#9AA7B3" fill-rule="evenodd" d="M40.9 16.02L41.23 16.28L41.23 15.07L41 14.86L40.84 14.55L40.78 14.56L40.78 15.77ZM41.52 16.4L42.39 16.44L42.39 15.23L41.52 15.19Z"/>
<path fill="#E2E9EF" fill-rule="evenodd" d="M41.11 16.21L41.64 16.43L41.64 15.22L41.11 14.99Z"/>
<path fill="#596673" fill-rule="evenodd" d="M42.75 16.33L43.18 16.01L43.3 15.67L43.3 14.46L43.22 14.45L43.08 14.85L42.75 15.12Z"/>
<path fill="#8E9862" fill-rule="evenodd" d="M30.59 44.21L30.33 44.02L30.53 44.39L30.67 44.85L30.72 45.35L30.67 45.87L30.53 46.4L30.3 46.93L29.99 47.44L29.6 47.93L29.14 48.38L28.63 48.77L28.07 49.11L27.49 49.37L26.89 49.56L26.29 49.67L25.7 49.69L25.15 49.64L24.63 49.5L24.18 49.28L24.04 49.18L24.07 49.23L24.39 49.59L24.78 49.88L25.23 50.1L25.75 50.24L26.3 50.29L26.89 50.27L27.49 50.16L28.09 49.97L28.67 49.71L29.23 49.37L29.74 48.98L30.2 48.53L30.59 48.04L30.9 47.53L31.13 47L31.27 46.47L31.32 45.95L31.27 45.45L31.13 44.99L30.9 44.57ZM24.9 48.26L24.81 47.93L24.77 47.58L24.81 47.21L24.9 46.83L25.07 46.46L25.29 46.09L25.57 45.75L25.89 45.43L26.25 45.15L26.65 44.91L27.06 44.73L27.49 44.59L27.91 44.52L28.33 44.5L28.72 44.54L29.08 44.64L29.38 44.78L29.31 44.65L29.08 44.4L28.81 44.19L28.48 44.04L28.12 43.94L27.73 43.9L27.31 43.92L26.89 43.99L26.46 44.13L26.05 44.31L25.65 44.55L25.29 44.83L24.97 45.15L24.69 45.49L24.47 45.86L24.3 46.23L24.21 46.61L24.17 46.98L24.21 47.33L24.3 47.66L24.47 47.95L24.69 48.2L25 48.43Z"/>
<path fill="#0A0D10" fill-rule="evenodd" d="M30.53 44.39L30.3 43.97L29.99 43.61L29.6 43.32L29.14 43.1L28.63 42.96L28.07 42.91L27.49 42.93L26.89 43.04L26.29 43.23L25.7 43.5L25.15 43.83L24.63 44.23L24.18 44.67L23.79 45.16L23.47 45.67L23.24 46.2L23.1 46.73L23.05 47.25L23.1 47.75L23.24 48.21L23.47 48.63L23.79 48.99L24.18 49.28L24.63 49.5L25.15 49.64L25.7 49.69L26.29 49.67L26.89 49.56L27.49 49.37L28.07 49.11L28.63 48.77L29.14 48.38L29.6 47.93L29.99 47.44L30.3 46.93L30.53 46.4L30.67 45.87L30.72 45.35L30.67 44.85ZM29.47 46.37L29.31 46.75L29.08 47.11L28.81 47.46L28.48 47.77L28.12 48.05L27.73 48.29L27.31 48.48L26.89 48.61L26.46 48.69L26.05 48.7L25.65 48.66L25.29 48.57L24.97 48.41L24.69 48.2L24.47 47.95L24.3 47.66L24.21 47.33L24.17 46.98L24.21 46.61L24.3 46.23L24.47 45.86L24.69 45.49L24.97 45.15L25.29 44.83L25.65 44.55L26.05 44.31L26.46 44.13L26.89 43.99L27.31 43.92L27.73 43.9L28.12 43.94L28.48 44.04L28.81 44.19L29.08 44.4L29.31 44.65L29.47 44.95L29.57 45.27L29.6 45.63L29.57 45.99Z"/>
<path fill="#0A0D10" fill-opacity="0.550" fill-rule="evenodd" d="M28.42 45.59L28.48 45.9L28.41 46.34L28.18 46.78L27.83 47.17L27.38 47.47L26.89 47.66L26.39 47.72L25.95 47.63L25.75 47.51L25.77 47.6L25.99 47.92L26.35 48.13L26.79 48.22L27.29 48.16L27.78 47.97L28.23 47.67L28.58 47.28L28.81 46.84L28.88 46.4L28.81 46L28.58 45.68Z"/>
<path fill="#FFFBF0" fill-rule="evenodd" d="M27.38 44.89L26.89 44.94L26.39 45.13L25.95 45.44L25.59 45.82L25.37 46.26L25.29 46.7L25.37 47.1L25.74 46.94L25.7 46.69L25.75 46.39L25.93 46.06L26.21 45.74L26.58 45.49L26.98 45.34L27.37 45.29L27.68 45.35L27.83 44.97Z"/>
<path fill="#E3D8BC" fill-rule="evenodd" d="M28.03 45.66L28.41 45.5L28.18 45.18L27.83 44.97L27.68 45.35L27.9 45.48ZM25.95 47.63L26.09 47.25L25.87 47.12L25.74 46.94L25.37 47.1L25.59 47.42Z"/>
<path fill="#A3936D" fill-rule="evenodd" d="M27.85 46.55L27.56 46.86L27.19 47.11L26.79 47.27L26.41 47.31L26.09 47.25L25.95 47.63L26.39 47.72L26.89 47.66L27.38 47.47L27.83 47.17L28.18 46.78L28.41 46.34L28.48 45.9L28.41 45.5L28.03 45.66L28.08 45.91L28.02 46.21Z"/>
<path fill="url(#g6)" fill-rule="evenodd" d="M28.03 45.66L27.9 45.48L27.68 45.35L27.37 45.29L26.98 45.34L26.58 45.49L26.21 45.74L25.93 46.06L25.75 46.39L25.7 46.69L25.74 46.94L25.87 47.12L26.09 47.25L26.41 47.31L26.79 47.27L27.19 47.11L27.56 46.86L27.85 46.55L28.02 46.21L28.08 45.91Z"/>
<path fill="#8E9862" fill-rule="evenodd" d="M45.26 39.64L45.26 39.83L34.58 42.49L34.58 43.11L45.76 40.33L45.76 39.52ZM45.26 41.41L45.26 41.6L34.58 44.25L34.58 44.88L45.76 42.1L45.76 41.28ZM45.26 43.17L45.26 43.36L34.58 46.02L34.58 46.64L45.76 43.86L45.76 43.05ZM45.26 44.94L45.26 45.13L34.58 47.78L34.58 48.41L45.76 45.63L45.76 44.81Z"/>
<path fill="#0A0D10" fill-rule="evenodd" d="M45.26 39.83L45.26 39.02L34.08 41.8L34.08 42.61ZM45.26 41.6L45.26 40.78L34.08 43.56L34.08 44.38ZM45.26 43.36L45.26 42.55L34.08 45.33L34.08 46.14ZM45.26 45.13L45.26 44.31L34.08 47.09L34.08 47.91Z"/>
<path fill="#3FCB7A" fill-rule="evenodd" d="M35.09 35.08L35.57 35.37L37.49 34.9L37.97 34.37L37.97 33.28L37.49 32.99L35.57 33.47L35.09 34Z"/>
<path fill="#0A0D10" fill-rule="evenodd" d="M43.48 14.03L43.58 14.21L43.71 14.59L43.76 14.98L43.71 15.38L43.58 15.76L43.48 15.93L42.64 17.06L48.18 21.7L49.52 19.9L50.04 19L50.45 18.05L50.75 17.05L50.93 16.02L50.99 14.98L50.93 13.94L50.75 12.92L50.45 11.92L50.04 10.96L49.52 10.06L48.18 8.26L42.64 12.91ZM41.43 12.91L35.89 8.26L34.55 10.06L34.03 10.96L33.62 11.92L33.32 12.92L33.14 13.94L33.08 14.98L33.14 16.02L33.32 17.05L33.62 18.05L34.03 19L34.55 19.9L35.89 21.7L41.43 17.06L40.59 15.93L40.49 15.76L40.35 15.38L40.31 14.98L40.35 14.59L40.49 14.21L40.59 14.03Z"/>
<path fill="#E3D8BC" fill-rule="evenodd" d="M37 18.3L36.65 17.69L36.37 17.05L36.17 16.37L36.04 15.68L36 14.98L36.04 14.28L36.17 13.59L36.37 12.92L36.65 12.28L37 11.67L37.41 11.11L36.09 10L35.56 10.72L35.11 11.5L34.75 12.33L34.49 13.2L34.33 14.08L34.28 14.98L34.33 15.88L34.49 16.77L34.75 17.64L35.11 18.46L35.56 19.24L36.09 19.97L37.41 18.86ZM39.59 16.59L39.28 15.99L39.18 15.66L39.13 15.32L39.13 14.64L39.28 13.98L39.42 13.67L39.79 13.1L38.47 11.99L38.15 12.43L37.88 12.9L37.66 13.39L37.51 13.91L37.41 14.44L37.38 14.98L37.41 15.52L37.51 16.06L37.66 16.57L37.88 17.07L38.15 17.54L38.47 17.97L39.79 16.87ZM44.28 13.1L44.65 13.67L44.88 14.31L44.94 14.64L44.94 15.32L44.79 15.99L44.65 16.3L44.28 16.87L45.6 17.97L45.92 17.54L46.19 17.07L46.41 16.57L46.56 16.06L46.65 15.52L46.69 14.98L46.65 14.44L46.56 13.91L46.41 13.39L46.19 12.9L45.92 12.43L45.6 11.99ZM47.07 11.67L47.42 12.28L47.7 12.92L47.9 13.59L48.02 14.28L48.06 14.98L48.02 15.68L47.9 16.37L47.7 17.05L47.42 17.69L47.07 18.3L46.65 18.86L47.97 19.97L48.51 19.24L48.96 18.46L49.32 17.64L49.58 16.77L49.73 15.88L49.79 14.98L49.73 14.08L49.58 13.2L49.32 12.33L48.96 11.5L48.51 10.72L47.97 10L46.65 11.11Z"/>
</svg>
