<svg xmlns="http://www.w3.org/2000/svg" viewBox="0 0 64 64" width="64" height="64">
<title>Missions: vehicle mission</title>
<defs><linearGradient id="g1" gradientUnits="userSpaceOnUse" x1="0.00" y1="15.00" x2="0.00" y2="49.00"><stop offset="0.000" stop-color="#AAB6C0"/><stop offset="1.000" stop-color="#8E9BA7"/></linearGradient><linearGradient id="g2" gradientUnits="userSpaceOnUse" x1="0.00" y1="25.35" x2="0.00" y2="38.95"><stop offset="0.000" stop-color="#47535E"/><stop offset="1.000" stop-color="#333D48"/></linearGradient></defs>
<path fill="#0A0D10" fill-rule="evenodd" d="M4 22.17L4 41.83L13.17 51L55.83 51L60 46.83L60 17.17L55.83 13L13.17 13Z"/>
<path fill="#E2E9EF" fill-rule="evenodd" d="M14 15L6 23L6 41L7.6 40.34L7.6 23.66L14.66 16.6L54.34 16.6L55 15Z"/>
<path fill="#9AA7B3" fill-rule="evenodd" d="M58 18L55 15L54.34 16.6L56.4 18.66ZM6 41L14 49L14.66 47.4L7.6 40.34Z"/>
<path fill="#596673" fill-rule="evenodd" d="M56.4 45.34L54.34 47.4L14.66 47.4L14 49L55 49L58 46L58 18L56.4 18.66Z"/>
<path fill="url(#g1)" fill-rule="evenodd" d="M7.6 23.66L7.6 40.34L14.66 47.4L54.34 47.4L56.4 45.34L56.4 18.66L54.34 16.6L14.66 16.6Z"/>
<path fill="#E2E9EF" fill-rule="evenodd" d="M16.22 31.4L15.78 30.82L15.33 30.47L15.42 30.6L15.7 31.28L15.8 32L15.7 32.72L15.42 33.4L14.98 33.98L14.4 34.42L13.72 34.7L13 34.8L12.28 34.7L11.6 34.42L11.47 34.33L11.82 34.78L12.4 35.22L13.08 35.5L13.8 35.6L14.52 35.5L15.2 35.22L15.78 34.78L16.22 34.2L16.5 33.52L16.6 32.8L16.5 32.08Z"/>
<path fill="#0A0D10" fill-rule="evenodd" d="M15.8 32L15.7 31.28L15.42 30.6L14.98 30.02L14.4 29.58L13.72 29.3L13 29.2L12.28 29.3L11.6 29.58L11.02 30.02L10.58 30.6L10.3 31.28L10.2 32L10.3 32.72L10.58 33.4L11.02 33.98L11.6 34.42L12.28 34.7L13 34.8L13.72 34.7L14.4 34.42L14.98 33.98L15.42 33.4L15.7 32.72Z"/>
<path fill="#0A0D10" fill-opacity="0.550" fill-rule="evenodd" d="M54.7 27.3L54.7 28.24L43.7 28.24L43.7 29.34L55.6 29.34L55.6 27.3ZM22.45 40.05L50.5 40.05L53.9 35.8L52.91 34.81L49.6 38.95L48.48 38.95L48.3 39.21L47.75 39.58L47.1 39.71L46.45 39.58L45.9 39.21L45.72 38.95L43.38 38.95L43.2 39.21L42.65 39.58L42 39.71L41.35 39.58L40.8 39.21L40.62 38.95L38.28 38.95L38.1 39.21L37.55 39.58L36.9 39.71L36.25 39.58L35.7 39.21L35.52 38.95L33.18 38.95L33 39.21L32.45 39.58L31.8 39.71L31.15 39.58L30.6 39.21L30.42 38.95L28.08 38.95L27.9 39.21L27.35 39.58L26.7 39.71L26.05 39.58L25.5 39.21L25.32 38.95L21.79 38.95ZM42.89 28.24L42.8 28.24L42.8 28.05L42 26.45L41.65 26.45L43.65 30.45L44 30.45ZM25 38.01L25.13 37.36L25.5 36.81L26.05 36.44L26.7 36.31L27.35 36.44L27.41 36.48L27.37 36.26L27 35.71L26.45 35.34L25.8 35.21L25.15 35.34L24.6 35.71L24.23 36.26L24.1 36.91L24.23 37.56L24.6 38.11L25.09 38.44ZM30.1 38.01L30.23 37.36L30.6 36.81L31.15 36.44L31.8 36.31L32.45 36.44L32.51 36.48L32.47 36.26L32.1 35.71L31.55 35.34L30.9 35.21L30.25 35.34L29.7 35.71L29.33 36.26L29.2 36.91L29.33 37.56L29.7 38.11L30.19 38.44ZM35.2 38.01L35.33 37.36L35.7 36.81L36.25 36.44L36.9 36.31L37.55 36.44L37.61 36.48L37.57 36.26L37.2 35.71L36.65 35.34L36 35.21L35.35 35.34L34.8 35.71L34.43 36.26L34.3 36.91L34.43 37.56L34.8 38.11L35.29 38.44ZM40.3 38.01L40.43 37.36L40.8 36.81L41.35 36.44L42 36.31L42.65 36.44L42.71 36.48L42.67 36.26L42.3 35.71L41.75 35.34L41.1 35.21L40.45 35.34L39.9 35.71L39.53 36.26L39.4 36.91L39.53 37.56L39.9 38.11L40.39 38.44ZM45.4 38.01L45.53 37.36L45.9 36.81L46.45 36.44L47.1 36.31L47.75 36.44L47.81 36.48L47.77 36.26L47.4 35.71L46.85 35.34L46.2 35.21L45.55 35.34L45 35.71L44.63 36.26L44.5 36.91L44.63 37.56L45 38.11L45.49 38.44Z"/>
<path fill="#7E8C99" fill-rule="evenodd" d="M19.93 34.7L22 31.25L28.93 31.25L30.63 26.15L40.61 26.15L41.1 25.35L30.05 25.35L28.35 30.45L21.55 30.45L19 34.7ZM31.55 38.48L30.9 38.61L30.25 38.48L30.06 38.95L32.29 38.95L32.68 38.69L33.22 37.87L33.42 36.91L33.22 35.95L32.47 36.26L32.6 36.91L32.47 37.56L32.1 38.11ZM26.45 38.48L25.8 38.61L25.15 38.48L24.96 38.95L27.19 38.95L27.58 38.69L28.12 37.87L28.32 36.91L28.12 35.95L27.37 36.26L27.5 36.91L27.37 37.56L27 38.11ZM35.16 38.95L37.39 38.95L37.78 38.69L38.32 37.87L38.52 36.91L38.32 35.95L37.57 36.26L37.7 36.91L37.57 37.56L37.2 38.11L36.65 38.48L36 38.61L35.35 38.48ZM43.6 27L53.9 27L54.7 26.2L42.8 26.2L42.8 28.24L43.6 27.44ZM48.75 30.45L43.65 30.45L43.16 31.25L48.42 31.25ZM41.75 38.48L41.1 38.61L40.45 38.48L40.26 38.95L42.49 38.95L42.88 38.69L43.42 37.87L43.62 36.91L43.42 35.95L42.67 36.26L42.8 36.91L42.67 37.56L42.3 38.11ZM46.85 38.48L46.2 38.61L45.55 38.48L45.36 38.95L47.59 38.95L47.98 38.69L48.52 37.87L48.72 36.91L48.52 35.95L47.77 36.26L47.9 36.91L47.77 37.56L47.4 38.11Z"/>
<path fill="#38434E" fill-rule="evenodd" d="M28.12 35.95L27.58 35.13L26.76 34.59L26.45 35.34L27 35.71L27.37 36.26ZM33.22 35.95L32.68 35.13L31.86 34.59L31.55 35.34L32.1 35.71L32.47 36.26ZM19 34.7L21.55 38.95L22 38.15L19.93 34.7ZM24.23 37.56L23.48 37.87L24.02 38.69L24.41 38.95L24.96 38.95L25.15 38.48L24.6 38.11ZM30.06 38.95L30.25 38.48L29.7 38.11L29.33 37.56L28.58 37.87L29.12 38.69L29.51 38.95ZM35.16 38.95L35.35 38.48L34.8 38.11L34.43 37.56L33.68 37.87L34.22 38.69L34.61 38.95ZM51.93 34.76L53 34.7L48.75 30.45L48.42 31.25ZM38.32 35.95L37.78 35.13L36.96 34.59L36.65 35.34L37.2 35.71L37.57 36.26ZM43.42 35.95L42.88 35.13L42.06 34.59L41.75 35.34L42.3 35.71L42.67 36.26ZM47.98 35.13L47.16 34.59L46.85 35.34L47.4 35.71L47.77 36.26L48.52 35.95ZM40.26 38.95L40.45 38.48L39.9 38.11L39.53 37.56L38.78 37.87L39.32 38.69L39.71 38.95ZM45 38.11L44.63 37.56L43.88 37.87L44.42 38.69L44.81 38.95L45.36 38.95L45.55 38.48Z"/>
<path fill="#1C242B" fill-rule="evenodd" d="M24.02 35.13L23.48 35.95L23.28 36.91L23.48 37.87L24.23 37.56L24.1 36.91L24.23 36.26L24.6 35.71L25.15 35.34L25.8 35.21L26.45 35.34L26.76 34.59L25.8 34.39L24.84 34.59ZM34.43 37.56L34.3 36.91L34.43 36.26L34.8 35.71L35.35 35.34L36 35.21L36.65 35.34L36.96 34.59L36 34.39L35.04 34.59L34.22 35.13L33.68 35.95L33.48 36.91L33.68 37.87ZM29.12 35.13L28.58 35.95L28.38 36.91L28.58 37.87L29.33 37.56L29.2 36.91L29.33 36.26L29.7 35.71L30.25 35.34L30.9 35.21L31.55 35.34L31.86 34.59L30.9 34.39L29.94 34.59ZM49.22 38.15L47.35 38.15L46.85 38.48L46.2 38.61L45.55 38.48L45.05 38.15L42.25 38.15L41.75 38.48L41.1 38.61L40.45 38.48L39.95 38.15L37.15 38.15L36.65 38.48L36 38.61L35.35 38.48L34.85 38.15L32.05 38.15L31.55 38.48L30.9 38.61L30.25 38.48L29.75 38.15L26.95 38.15L26.45 38.48L25.8 38.61L25.15 38.48L24.65 38.15L22 38.15L21.55 38.95L49.6 38.95L53 34.7L51.93 34.76ZM53.9 27L53.9 27.44L43.6 27.44L42.8 28.24L54.7 28.24L54.7 26.2ZM43.65 30.45L41.1 25.35L40.61 26.15L43.16 31.25ZM39.32 35.13L38.78 35.95L38.58 36.91L38.78 37.87L39.53 37.56L39.4 36.91L39.53 36.26L39.9 35.71L40.45 35.34L41.1 35.21L41.75 35.34L42.06 34.59L41.1 34.39L40.14 34.59ZM44.42 35.13L43.88 35.95L43.68 36.91L43.88 37.87L44.63 37.56L44.5 36.91L44.63 36.26L45 35.71L45.55 35.34L46.2 35.21L46.85 35.34L47.16 34.59L46.2 34.39L45.24 34.59Z"/>
<path fill="url(#g2)" fill-rule="evenodd" d="M53.9 27.44L53.9 27L43.6 27L43.6 27.44ZM22 31.25L19.93 34.7L22 38.15L23.66 38.15L23.48 37.87L23.28 36.91L23.48 35.95L24.02 35.13L24.84 34.59L25.8 34.39L26.76 34.59L27.58 35.13L28.12 35.95L28.32 36.91L28.12 37.87L27.94 38.15L28.76 38.15L28.58 37.87L28.38 36.91L28.58 35.95L29.12 35.13L29.94 34.59L30.9 34.39L31.86 34.59L32.68 35.13L33.22 35.95L33.42 36.91L33.22 37.87L33.04 38.15L33.86 38.15L33.68 37.87L33.48 36.91L33.68 35.95L34.22 35.13L35.04 34.59L36 34.39L36.96 34.59L37.78 35.13L38.32 35.95L38.52 36.91L38.32 37.87L38.14 38.15L38.96 38.15L38.78 37.87L38.58 36.91L38.78 35.95L39.32 35.13L40.14 34.59L41.1 34.39L42.06 34.59L42.88 35.13L43.42 35.95L43.62 36.91L43.42 37.87L43.24 38.15L44.06 38.15L43.88 37.87L43.68 36.91L43.88 35.95L44.42 35.13L45.24 34.59L46.2 34.39L47.16 34.59L47.98 35.13L48.52 35.95L48.72 36.91L48.52 37.87L48.34 38.15L49.22 38.15L51.93 34.76L48.42 31.25L43.16 31.25L40.61 26.15L30.63 26.15L28.93 31.25Z"/>
<path fill="#E2E9EF" fill-rule="evenodd" d="M20.5 44.5L52.5 44.5L52.5 43L52 43L52 44L20.5 44Z"/>
<path fill="#0A0D10" fill-rule="evenodd" d="M52 42.5L52 44L20 44L20 42.5Z"/>
</svg>
